# xmcd CD database file
#
# Track frame offsets:
#	150
#	10949
#	19470
#	36809
#	48426
#	63274
#	81236
#	97052
#	112751
#	126160
#	141084
#	153795
#	167954
#	176409
#	184965
#	200725
#	217986
#	232199
#	242390
#	256460
#	271654
#
# Disc length: 3839 seconds
#
# Revision: 0
# Processed by: cddbd v1.5.2PL0 Copyright (c) Steve Scherf et al.
# Submitted via: CDex 1.70beta2
#
DISCID=230efd15
DTITLE=OVCMHoF - Cdn. - OVM. - ON - Ottawa Valley Country Music Hall of Fame 0 V2
DYEAR=1900
DGENRE=Country
TTITLE0=This White Circle - Marie King
TTITLE1=Ranger's Hornpipe - Bob Ranger
TTITLE2=Bit I Was Younger Then - Neville Wells
TTITLE3=Ralph's Reel - Al Brisco
TTITLE4=Souvenirs - Colleen Peterson
TTITLE5=Lonesome Fiddler - The Brisson Bros. feat Denis Brisson
TTITLE6=Let's Bring It Back Again - Gary Fairburn and donna Moon
TTITLE7=The Master's Bouquet - Edie Thoman
TTITLE8=Old Standby - Mike O"Riley
TTITLE9=Hillbilly Funk - Mickey McGivern
TTITLE10=Sawdust On the Floor of My Heart - Sneexy waters
TTITLE11=Hey Uncle Tom - Tom Wilson
TTITLE12=Bill Cheatham - Alex Cobb
TTITLE13=Frankie and johnny - The Music Men - feat Gil Glazer
TTITLE14=Granny White Special - Peter Dawson
TTITLE15=Gallopin' Guitar - Al Utronki
TTITLE16=Alberta Cowboy - Fred Dixon
TTITLE17=This Ole Heart - Dusty King
TTITLE18=Highway 11 - Wayne Rostad
TTITLE19=She's My Lady - Andy Clark
TTITLE20=If Your Love Ran Out - Bobby LaLonde
EXTD=
EXTT0=
EXTT1=
EXTT2=
EXTT3=
EXTT4=
EXTT5=
EXTT6=
EXTT7=
EXTT8=
EXTT9=
EXTT10=
EXTT11=
EXTT12=
EXTT13=
EXTT14=
EXTT15=
EXTT16=
EXTT17=
EXTT18=
EXTT19=
EXTT20=
PLAYORDER=
